<?xml version="1.0" standalone="no"?>
<!DOCTYPE svg PUBLIC "-//W3C//DTD SVG 20010904//EN"
 "http://www.w3.org/TR/2001/REC-SVG-20010904/DTD/svg10.dtd">
<svg version="1.0" xmlns="http://www.w3.org/2000/svg"
 width="2000.000000pt" height="2000.000000pt" viewBox="0 0 2000.000000 2000.000000"
 preserveAspectRatio="xMidYMid meet">
<metadata>
Created by potrace 1.11, written by Peter Selinger 2001-2013
</metadata>
<g transform="translate(0.000000,2000.000000) scale(0.100000,-0.100000)"
fill="#000000" stroke="none">
<path d="M5255 18135 c-955 -91 -1786 -421 -2495 -990 -509 -409 -933 -941
-1216 -1530 -256 -532 -405 -1094 -454 -1709 -5 -71 -10 -273 -10 -450 0
-1471 263 -2656 817 -3681 373 -690 852 -1309 1603 -2069 615 -622 1018 -987
2695 -2442 1662 -1441 2497 -2188 3439 -3074 132 -124 268 -251 303 -284 l63
-58 68 63 c37 34 173 162 302 284 942 885 1800 1652 3355 3000 1743 1511 2048
1787 2685 2424 514 514 790 824 1102 1239 899 1195 1311 2400 1398 4092 13
253 13 791 0 956 -67 845 -328 1607 -781 2274 -705 1040 -1813 1729 -3090
1920 -273 41 -482 53 -819 47 -408 -7 -666 -40 -1025 -129 -1212 -301 -2295
-1101 -3054 -2259 -64 -98 -122 -185 -128 -195 -13 -19 -13 -19 -25 0 -7 10
-65 97 -129 195 -685 1044 -1628 1796 -2701 2155 -308 103 -597 168 -938 212
-173 22 -773 28 -965 9z"/>
</g>
</svg>
